<svg xmlns="http://www.w3.org/2000/svg" aria-hidden="true" style="position:absolute;width:0;height:0;overflow:hidden">
  <defs>
    <symbol id="icon-facebook" viewBox="0 0 32 32">
      <path fill="#4d5ae5" d="M32 16c0 4.418-1.791 8.418-4.686 11.314S20.419 32 16 32c-4.418 0-8.418-1.791-11.314-4.686S0 20.419 0 16c0-4.418 1.791-8.418 4.686-11.314S11.581 0 16 0c4.418 0 8.418 1.791 11.314 4.686S32 11.581 32 16z" style="fill:var(--color1, #4d5ae5)"/>
      <path fill="#f4f4fd" d="M19.198 9.588h1.753V6.535a22.54 22.54 0 0 0-2.554-.135c-2.527 0-4.258 1.59-4.258 4.511V13.6H11.35v3.413h2.789V25.6h3.419v-8.586h2.676l.425-3.413h-3.102V11.25c.001-.986.266-1.662 1.641-1.662z" style="fill:var(--color2, #f4f4fd)"/>
    </symbol>
    <symbol id="icon-in" viewBox="0 0 32 32">
      <path fill="#4d5ae5" d="M32 16c0 4.418-1.791 8.418-4.686 11.314S20.419 32 16 32c-4.418 0-8.418-1.791-11.314-4.686S0 20.419 0 16c0-4.418 1.791-8.418 4.686-11.314S11.581 0 16 0c4.418 0 8.418 1.791 11.314 4.686S32 11.581 32 16z" style="fill:var(--color1, #4d5ae5)"/>
      <path fill="#f4f4fd" d="M25.595 25.6v-.001h.005v-7.042c0-3.445-.742-6.098-4.769-6.098-1.936 0-3.235 1.062-3.766 2.07h-.056v-1.748h-3.818v12.818h3.976v-6.347c0-1.671.317-3.287 2.386-3.287 2.039 0 2.07 1.907 2.07 3.394V25.6h3.972zM6.717 12.782h3.981V25.6H6.717V12.782zM8.706 6.4C7.433 6.4 6.4 7.433 6.4 8.706s1.033 2.327 2.306 2.327c1.273 0 2.306-1.054 2.306-2.327S9.978 6.4 8.706 6.4z" style="fill:var(--color2, #f4f4fd)"/>
    </symbol>
    <symbol id="icon-instagram" viewBox="0 0 32 32">
      <path fill="#4d5ae5" d="M32 16c0 4.418-1.791 8.418-4.686 11.314S20.419 32 16 32c-4.418 0-8.418-1.791-11.314-4.686S0 20.419 0 16c0-4.418 1.791-8.418 4.686-11.314S11.581 0 16 0c4.418 0 8.418 1.791 11.314 4.686S32 11.581 32 16z" style="fill:var(--color1, #4d5ae5)"/>
      <path fill="#f4f4fd" d="M25.581 12.045c-.045-1.02-.21-1.722-.446-2.329a4.693 4.693 0 0 0-1.11-1.703 4.714 4.714 0 0 0-1.699-1.106c-.611-.236-1.309-.401-2.329-.446-1.028-.049-1.354-.06-3.961-.06s-2.933.011-3.957.056c-1.02.045-1.722.21-2.329.446a4.693 4.693 0 0 0-1.703 1.11 4.723 4.723 0 0 0-1.106 1.699c-.236.611-.401 1.309-.446 2.329-.049 1.028-.06 1.354-.06 3.961s.011 2.933.056 3.957c.045 1.02.21 1.722.446 2.329a4.745 4.745 0 0 0 1.11 1.703c.48.488 1.061.866 1.699 1.106.611.236 1.309.401 2.329.446 1.024.045 1.35.056 3.957.056s2.933-.011 3.957-.056c1.02-.045 1.722-.21 2.329-.446a4.912 4.912 0 0 0 2.809-2.809c.236-.611.401-1.309.446-2.329.045-1.024.056-1.35.056-3.957s-.004-2.933-.049-3.957zm-1.729 7.839c-.041.938-.199 1.444-.33 1.782a3.187 3.187 0 0 1-1.823 1.823c-.338.131-.848.289-1.782.33-1.013.045-1.316.056-3.878.056s-2.869-.011-3.878-.056c-.938-.041-1.444-.199-1.782-.33a2.972 2.972 0 0 1-1.103-.716 2.964 2.964 0 0 1-.716-1.103c-.131-.338-.289-.848-.33-1.782-.045-1.013-.056-1.317-.056-3.878s.011-2.869.056-3.878c.041-.938.199-1.444.33-1.782.154-.416.398-.795.72-1.103a2.964 2.964 0 0 1 1.103-.716c.338-.131.848-.289 1.782-.33 1.013-.045 1.317-.056 3.878-.056 2.566 0 2.869.011 3.878.056.938.041 1.444.199 1.782.33a2.96 2.96 0 0 1 1.103.716c.319.311.563.686.716 1.103.131.338.289.848.33 1.782.045 1.013.056 1.316.056 3.878s-.011 2.862-.056 3.875z" style="fill:var(--color2, #f4f4fd)"/>
      <path fill="#f4f4fd" d="M16.036 11.07a4.933 4.933 0 0 0 0 9.864 4.933 4.933 0 0 0 0-9.864zm0 8.131a3.2 3.2 0 1 1 .002-6.4 3.2 3.2 0 0 1-.002 6.4zM22.314 10.875a1.151 1.151 0 1 1-2.303 0 1.151 1.151 0 0 1 2.303 0z" style="fill:var(--color2, #f4f4fd)"/>
    </symbol>
    <symbol id="icon-twitter" viewBox="0 0 32 32">
      <path fill="#4d5ae5" d="M32 16c0 4.418-1.791 8.418-4.686 11.314S20.419 32 16 32c-4.418 0-8.418-1.791-11.314-4.686S0 20.419 0 16c0-4.418 1.791-8.418 4.686-11.314S11.581 0 16 0c4.418 0 8.418 1.791 11.314 4.686S32 11.581 32 16z" style="fill:var(--color1, #4d5ae5)"/>
      <path fill="#f4f4fd" d="M25.6 10.047a8.223 8.223 0 0 1-2.268.622 3.915 3.915 0 0 0 1.732-2.176 7.866 7.866 0 0 1-2.496.953 3.936 3.936 0 0 0-6.809 2.691c0 .312.026.612.091.898a11.143 11.143 0 0 1-8.113-4.117 3.96 3.96 0 0 0-.539 1.99c0 1.363.702 2.572 1.748 3.271a3.888 3.888 0 0 1-1.778-.485v.043a3.954 3.954 0 0 0 3.154 3.868c-.32.088-.67.13-1.032.13-.252 0-.506-.014-.745-.067.51 1.559 1.957 2.705 3.678 2.742a7.907 7.907 0 0 1-4.88 1.679c-.323 0-.632-.014-.942-.054a11.085 11.085 0 0 0 6.038 1.766c7.243 0 11.203-6 11.203-11.201 0-.174-.006-.342-.014-.509a7.845 7.845 0 0 0 1.973-2.044z" style="fill:var(--color2, #f4f4fd)"/>
    </symbol>
  </defs>
</svg>
